<svg version="1.0" width="871.09698pt" fill="#1180c4" height="139.91176pt" viewBox="0 0 871.09699 139.91176" preserveAspectRatio="xMidYMid" id="svg23" xmlns="http://www.w3.org/2000/svg" xmlns:svg="http://www.w3.org/2000/svg"><defs id="defs23"><linearGradient id="swatch223"><stop offset="0" id="stop223"/></linearGradient><linearGradient id="swatch189"><stop offset="0" id="stop190"/></linearGradient><linearGradient id="swatch125"><stop offset="0" id="stop126"/></linearGradient><linearGradient id="swatch62"><stop offset="0" id="stop62"/></linearGradient><linearGradient id="swatch23"><stop offset="0" id="stop23"/></linearGradient><rect x="498.7749" y="102.44198" width="841.3678" height="298.92908" id="rect23"/></defs><g transform="matrix(0.1,0,0,-0.1,64.873938,896.37407)" stroke="none" id="g23" style="stroke-width:0;stroke-dasharray:none"><path d="m518.80599 8949.3656c-1.0622-3.1866-2.1244-10.622-2.1244-16.9952.0-18.0574-13.45454-61.2535-28.67942-91.7033-18.41147-36.8229-42.48802-71.1674-77.54064-110.1148-37.17702-41.0717-38.94735-47.799-42.13396-135.2535-2.1244-70.1053-4.2488-79.311-18.0574-79.311-11.33014.0-14.16268 15.933-14.16268 77.8947.0 34.3445-1.41627 60.5454-3.54067 61.9617-6.01913 3.8947-61.9617-35.4067-71.16744-49.9234-7.78947-12.7464-8.4976-18.0574-9.5598-67.9809-1.41627-49.9234-1.77034-54.1722-8.85167-59.1291-14.87081-10.268-20.53588 4.2488-23.36842 61.6076-1.41626 32.5742-3.54066 44.6124-7.08133 45.6746-2.47847.7082-18.41148-12.3923-35.40669-29.7416-36.82295-37.177-46.38276-57.3588-46.38276-96.3062.0-27.2631 7.43541-72.9377 17.70335-108.6985 8.14353-28.3253 8.85167-41.0717 2.83253-47.0909-8.14354-8.1435-16.64114-4.6029-22.66028 9.2058-8.4976 20.5358-25.84688 89.9329-28.32535 115.0717-2.83253 28.3253-5.66507 33.9904-13.8086 27.2631-10.622005-8.8516-53.110028-75.7703-69.751171-109.7607-17.703343-36.1148-27.971281-62.3158-58.066964-149.4162-10.267939-30.4498-23.014339-64.4402-27.971275-75.7703-4.956936-10.9761-8.497605-20.5359-8.143538-20.89 1.062201-1.0622 99.138713 72.2297 147.99994 110.823 110.468858 86.3923 214.564508 183.0525 277.942478 257.4066 38.23922 44.9665 83.55978 110.1148 111.17699 159.3301 20.88995 37.531 24.78468 42.488 32.22009 41.4258 13.45454-1.4163 15.57894-5.6651 10.97607-24.4306-16.99521-68.3349-103.03345-192.2583-201.81811-291.7511-84.97604-84.622-212.44011-189.0717-316.181698-258.4688-24.076546-16.2871-45.320558-31.866-47.799026-34.6986-2.478461-3.1866-4.602862-11.3301-4.602862-18.0574.0-14.5167-2.478468-18.7655-13.45454-24.4306-10.267939-5.311-26.200944-2.1244-34.698554 7.0813-3.1866 3.5407-7.08134 6.7273-8.49761 6.7273-6.01913.0-88.87078-60.5454-246.07646-180.22-77.54065-59.4833-144.10522-119.3206-169.9521-153.665-8.14354-11.3302-9.20574-14.1627-4.95694-16.6412 7.08134-4.6029 18.41148-1.4163 52.4019 14.8708 41.77989 19.8278 93.82772 56.2967 266.61235 185.177 185.885095 139.1483 234.392255 172.7846 260.947269 180.5741 10.976073 3.1866 23.014346 7.0813 26.909081 8.8517 10.622006 4.6028 52.40189 13.1004 93.82771 19.4736 71.52151 10.622 128.88034 31.1579 178.80377 63.378 9.5598 6.3732 29.74161 18.4115 44.25835 26.2009 35.40669 19.1197 71.52151 44.9665 96.66026 68.335 26.20094 25.1387 26.20094 29.3875.0 26.909-35.40669-3.8947-176.3253-7.0813-190.13391-4.6028-10.622 2.1244-12.7464 3.8947-12.7464 10.976.0 12.7464 9.91387 15.933 46.73682 15.933 70.81337.0 178.09563 10.6221 201.46404 20.1819 16.99521 6.7272 46.0287 37.531 71.87558 76.4784 24.07654 36.4689 38.23922 66.9186 48.15309 103.7416 8.14354 30.4497 13.80861 90.6411 8.14354 84.622-1.77034-1.7704-12.03828-13.8086-22.66028-26.201-20.18181-24.0765-84.97605-81.4354-112.2392-99.4928-18.05741-11.6842-26.20094-13.1004-32.57415-5.311-7.78947 9.2058-.35406 20.89 28.67942 44.2584 61.9617 49.9234 110.11479 104.0956 127.46407 143.3971 22.30621 50.2775-6.72727 167.4736-63.0239 254.574-15.93301 24.4306-46.73683 62.3158-50.98563 62.3158-1.41627.0-3.54067-2.4785-4.60287-5.6651z" id="path1"/><path d="m-114.61961 8772.6863c-100.55499-14.1627-181.6363-45.6747-269.79895-103.7416-48.15309-31.512-129.94254-112.9473-160.74636-160.0382-71.52143-108.3445-103.74152-232.622-92.76544-354.775 9.20573-98.0766 36.82288-178.4497 89.57884-260.2392 29.38755-44.9665 48.86123-64.7942 64.44017-64.7942 16.99521.0 26.90908 8.8517 26.90908 23.3684s-4.2488 23.0144-29.74162 62.6698c-69.75117 106.9282-100.20092 226.6028-87.45451 343.4449 15.22487 140.2105 106.57412 281.4831 235.80853 364.6889 162.51669 104.4497 361.148196 120.0286 549.51176 42.842 34.69855-14.5167 43.19616-14.8708 57.35883-3.1866 24.07655 20.5359 16.64114 35.0527-29.03348 56.6507-43.19616 20.5359-87.10045 34.6986-140.56454 46.0287-55.942563 11.6842-158.267885 15.2249-213.50231 7.0814z" id="path2"/><path d="m-296.96404 8559.8921c-19.47368-9.5598-67.27271-58.421-153.66503-156.4976-48.15309-54.5263-57.71289-71.1674-55.23443-95.9521 2.47847-24.0765 13.10048-37.177 36.82296-46.0287 16.99521-6.3732 27.26314-7.4354 81.78945-7.4354 69.75117.0 101.97125 4.2488 118.6124 15.579 23.72247 15.933 23.36841 14.5167 26.20094 130.6506l2.47847 105.1579h160.392291c88.162641.0 162.870748 1.0622 166.057349 2.1244 7.4354 3.1866 15.933 19.8277 15.933 32.5741.0 6.3732-3.54066 13.4546-9.20573 18.7656l-9.205738 8.4976-180.928157 1.0622-181.282235 1.0622zm-8.14354-202.1722.35407-32.9282h-60.54544c-47.09089.0-59.8373 1.0622-57.71289 4.6029 1.41626 2.1244 27.61721 32.5741 57.71289 67.2727l55.23443 63.0239 2.1244-34.6986c1.41627-19.1196 2.47847-49.5693 2.83254-67.2727z" id="path3"/><path d="m-172.33251 8397.7295c-16.64114-7.4354-21.24401-27.6172-8.85167-38.9474 5.66507-4.9569 14.51674-5.6651 69.39711-4.9569l63.023891 1.0622 7.081337 9.5598c6.019136 8.1435 6.373203 10.9761 2.832535 20.1818-2.832535 6.3732-8.497605 12.0383-15.224875 14.1627-16.287069 5.665-104.803788 4.6028-118.258328-1.0622z" id="path4"/><path d="m557.04521 8294.696c-12.03827-8.1435-14.87081-21.5981-18.76554-84.976-7.78947-121.445-37.17702-200.7559-116.13393-312.287-30.44975-42.488-41.07176-68.3349-39.30142-93.8277 1.0622-13.4546 2.1244-15.2249 9.20573-14.5168 21.95215 2.4785 59.8373 41.0718 101.61719 103.7416 62.31577 93.1196 96.30619 187.3014 104.80379 289.2726 5.31101 65.8565 3.1866 97.7225-7.4354 109.0526-9.55981 9.9139-23.01435 11.3302-33.99042 3.5407z" id="path5"/><path d="m-187.55738 8287.2606c-9.20574-11.6842-9.20574-15.933-.70814-26.555 6.37321-8.1435 9.55981-8.4976 51.3397-9.5598 43.550224-1.4163 44.612424-1.0622 53.464096 7.7895 10.622005 10.622 11.330139 20.8899 1.770334 30.4497-6.373203 6.3732-11.684206 7.0813-52.75597 7.0813-45.32055.0-46.02869.0-53.11002-9.2057z" id="path6"/><path d="m-427.61471 8199.452-9.91388-8.4976-1.0622-137.732c-1.0622-135.6076-.70814-138.0861 6.37321-147.2918 6.01913-7.7895 10.622-9.5598 22.30621-9.5598 15.93301.3541 23.72248 4.6029 30.09568 16.6411 6.72727 12.0383 6.01914 255.9904-.70813 271.5693-9.55981 23.3684-29.74162 29.7416-47.09089 14.8708z" id="path7"/><path d="m-292.36117 8188.476c-14.87081-14.5168-9.55981-34.3445 10.26793-39.3015 4.24881-1.0622 38.94736-1.4162 77.18658-.7081 62.31577 1.0622 70.10524 1.7703 76.83251 7.7895 10.26794 9.2057 9.91387 28.3253-.35407 35.4067-6.72727 4.6028-20.53588 5.665-81.78944 5.665-73.29184.0-73.64591.0-82.14351-8.8516z" id="path8"/><path d="m296.452 8096.7726c-16.64114-12.3923-16.99521-18.4114-16.99521-224.1243.0-123.5693-1.41626-198.9856-3.89473-207.1291-6.72727-25.4928 11.33014-24.0765-330.698443-24.0765-204.650637.0-309.100367 1.0622-313.703237 3.5406-3.54066 2.1244-10.622 11.6842-15.57894 21.5981-10.26794 20.1818-21.95214 27.2632-36.11482 22.3062-33.63636-12.0383-30.44975-64.4402 5.66507-93.1196 30.80382-24.4306 7.78947-23.0143 350.880263-21.9521 187.301357.3541 316.181697 2.1244 325.741497 4.2488 31.86602 7.0813 57.7129 27.9713 71.52151 58.067l8.14353 17.7033v216.3348c0 208.1914-.35406 217.043-6.72727 224.1244-7.78947 8.4976-28.67941 9.9138-38.23922 2.4784z" id="path9"/><path d="m-294.13151 8087.5669c-8.85167-8.8517-9.20574-25.4928-.70813-32.9282 5.66507-4.957 15.57894-6.0192 63.37797-6.0192 56.65069.0 57.00476.0 62.66983 8.8517 7.4354 11.3302 7.08134 24.0766-.70813 31.1579-5.66507 4.9569-15.22488 6.0191-61.9617 6.0191-50.98563.0-56.29664-.7081-62.66984-7.0813z" id="path10"/><path d="m-91.251195 7886.1029c-13.100475-1.0622-25.138755-4.6029-29.387555-8.1436-16.64114-14.5167-10.26794-39.6555 11.33015-43.5502 6.3732-1.0622 76.832496-1.7703 156.143472-1.0622l144.813338 1.0622 6.72727 8.4976c9.55981 11.6842 8.49761 25.8469-2.47846 36.1148l-8.85168 8.4976-128.172195.3541c-70.459304.3541-138.086067-.3541-150.12434-1.7703z" id="path11"/><path d="m-269.34683 7773.1555c-9.5598-4.6028-13.10047-9.2057-15.93301-19.8277-2.83253-12.3924-2.47847-14.1627 6.37321-21.9522l9.91387-8.4976h227.310918c202.880302.0 228.373122.7082 235.454452 5.6651 10.97608 7.7895 15.57895 20.5359 11.33014 31.512-7.4354 19.4736-9.20573 19.4736-245.014258 19.4736-199.693702.0-218.105182-.354-229.435322-6.3732z" id="path12"/><text transform="matrix(13.73586,0,0,-13.73586,-6332.6792,10353.343)" id="text23" style="font-style:normal;font-variant:normal;font-weight:400;font-stretch:normal;font-size:96px;font-family:times new roman;-inkscape-font-specification:'Times New Roman, Normal';font-variant-ligatures:normal;font-variant-caps:normal;font-variant-numeric:normal;font-variant-east-asian:normal;white-space:pre;shape-inside:url(#rect23);display:inline;opacity:1;fill-opacity:1;stroke-width:0;stroke-linejoin:bevel;stroke-dasharray:none;stroke-opacity:1"><tspan x="520.77539" y="187.3755" id="tspan1">Godocument</tspan></text></g></svg>